<svg xmlns="http://www.w3.org/2000/svg" xmlns:xlink="http://www.w3.org/1999/xlink" width="737" height="364" viewBox="0 0 737 364">
  <defs>
    <clipPath id="clip-logo-wit">
      <rect width="737" height="364"/>
    </clipPath>
  </defs>
  <g id="logo-wit" clip-path="url(#clip-logo-wit)">
    <g id="logo_navbar" data-name="logo navbar" transform="translate(-300.5 -105.691)">
      <g id="Group_10" data-name="Group 10" transform="translate(334 271.853)">
        <path id="Path_10" data-name="Path 10" d="M0,30.711A40.677,40.677,0,0,1,40.683,71.394,40.685,40.685,0,0,1,0,112.078v40.679A81.371,81.371,0,0,0,81.37,71.39,81.37,81.37,0,0,0,0-9.972Z" transform="translate(0 9.972)" fill="#fff"/>
      </g>
      <g id="Group_11" data-name="Group 11" transform="translate(334 149.801)">
        <path id="Path_11" data-name="Path 11" d="M0,30.711A40.683,40.683,0,0,1,40.683,71.394,40.685,40.685,0,0,1,0,112.078v40.687a81.372,81.372,0,0,0,81.37-81.37A81.374,81.374,0,0,0,0-9.972Z" transform="translate(0 9.972)" fill="#fff"/>
      </g>
      <g id="Group_20" data-name="Group 20" transform="translate(0 -6)">
        <g id="Group_1" data-name="Group 1" transform="translate(446.755 202.449)">
          <path id="Path_1" data-name="Path 1" d="M39.168,84.108a41.142,41.142,0,0,1-20.525,6.065C4.649,90.173-6.236,80.846-6.236,62.8V-13.391H13.976V9.471H37.77V24.244H13.976V59.229c0,9.021,3.269,13.062,8.868,13.062,3.262,0,7.15-1.245,11.664-3.422Z" transform="translate(6.236 13.391)" fill="#fff"/>
        </g>
        <g id="Group_2" data-name="Group 2" transform="translate(500.086 221.112)">
          <path id="Path_2" data-name="Path 2" d="M41.85,0V19.593c-17.569-1.092-28.3,9.174-28.3,24.26V83.971H-6.663V.772H13.549V16.79C19.148,5.912,28.941.153,41.85,0" transform="translate(6.663)" fill="#fff"/>
        </g>
        <g id="Group_3" data-name="Group 3" transform="translate(554.192 186.897)">
          <path id="Path_3" data-name="Path 3" d="M18.78,9.66c0,6.531-4.514,11.2-10.885,11.2S-2.99,16.191-2.99,9.66s4.507-11.2,10.885-11.2S18.78,3.129,18.78,9.66M18,116.646H-2.211V33.454H18Zm0-83.192" transform="translate(2.99 1.538)" fill="#fff"/>
        </g>
        <g id="Group_4" data-name="Group 4" transform="translate(584.818 221.265)">
          <path id="Path_4" data-name="Path 4" d="M72.168.537V75.8c0,23.787-17.256,38.873-43.54,38.873A62.081,62.081,0,0,1-6.517,103.635l8.089-14.62a42.469,42.469,0,0,0,25.964,8.708c14.933,0,24.42-8.242,24.42-21.457V66.473c-5.6,8.395-14.62,13.062-26.437,13.062C3.436,79.535-11.49,63.364-11.49,39.41-11.49,15.936,3.283-.082,24.9-.082,36.87-.235,46.2,4.578,51.956,12.98V.537ZM51.956,39.876c0-13.994-9.021-23.787-22.083-23.787S7.79,26.042,7.637,39.876c.153,14,9.014,23.794,22.236,23.794,13.062,0,22.083-9.793,22.083-23.794" transform="translate(11.49 0.085)" fill="#fff"/>
        </g>
        <g id="Group_5" data-name="Group 5" transform="translate(683.708 186.897)">
          <path id="Path_5" data-name="Path 5" d="M18.78,9.66c0,6.531-4.514,11.2-10.885,11.2S-2.99,16.191-2.99,9.66s4.507-11.2,10.885-11.2S18.78,3.129,18.78,9.66M18,116.646H-2.211V33.454H18Zm0-83.192" transform="translate(2.99 1.538)" fill="#fff"/>
        </g>
        <g id="Group_6" data-name="Group 6" transform="translate(719.934 202.449)">
          <path id="Path_6" data-name="Path 6" d="M39.168,84.108a41.142,41.142,0,0,1-20.525,6.065C4.649,90.173-6.236,80.846-6.236,62.8V-13.391H13.976V9.471H37.77V24.244H13.976V59.229c0,9.021,3.269,13.062,8.868,13.062,3.262,0,7.15-1.245,11.664-3.422Z" transform="translate(6.236 13.391)" fill="#fff"/>
        </g>
        <g id="Group_7" data-name="Group 7" transform="translate(764.867 221.112)">
          <path id="Path_7" data-name="Path 7" d="M75.654.669V83.861H55.442V70.646c-5.912,9.021-15.4,14.147-27.835,14.147-23.794,0-39.652-17.416-39.652-42.761C-12.045,17,3.507.05,26.828-.1,39.577-.263,49.377,4.87,55.442,14.044V.669ZM55.442,45.454V39.542C54.2,26.174,45.023,17.153,31.961,17.153,18.12,17.153,8.48,27.725,8.32,42.5c.16,14.926,9.647,25.345,23.641,25.345,13.062,0,22.236-9.014,23.481-22.389" transform="translate(12.045 0.106)" fill="#fff"/>
        </g>
        <g id="Group_8" data-name="Group 8" transform="translate(862.199 221.112)">
          <path id="Path_8" data-name="Path 8" d="M75.654.669V83.861H55.442V70.646c-5.912,9.021-15.4,14.147-27.835,14.147-23.794,0-39.652-17.416-39.652-42.761C-12.045,17,3.507.05,26.828-.1,39.577-.263,49.377,4.87,55.442,14.044V.669ZM55.442,45.454V39.542C54.2,26.174,45.023,17.153,31.961,17.153,18.12,17.153,8.48,27.725,8.32,42.5c.16,14.926,9.647,25.345,23.641,25.345,13.062,0,22.236-9.014,23.481-22.389" transform="translate(12.045 0.106)" fill="#fff"/>
        </g>
        <g id="Group_9" data-name="Group 9" transform="translate(965.746 189.703)">
          <path id="Path_9" data-name="Path 9" d="M23.88,84.371c2.49,0,5.133-.932,8.242-2.483l2.33,16.943a35.107,35.107,0,0,1-15.7,4.048C6.311,102.88-3.8,94.172-3.8,76.756V-13.433H16.257V75.045c0,6.371,3.116,9.327,7.623,9.327" transform="translate(3.802 13.433)" fill="#fff"/>
        </g>
      </g>
    </g>
  </g>
</svg>
